PathFileType	4	(X/Y/Z)	C:/Users/beibeiliu/ov580/test_trc/User3\sequence.21_training_dense_left.trc
DataRate	CameraRate	NumFrames	NumMarkers	Units	OrigDataRate	OrigDataStartFrame	OrigNumFrames
120	120	20	19	mm	120	36	71
Frame#	Time	ThumbCMC			ThumbMCP			ThumbIP			ThumbTip			IndexMCP			IndexPIP			IndexTip			MiddleMCP			MiddlePIP			MiddleTip			RingMCP			RingPIP			RingTip			PinkyMCP			PinkyPIP			PinkyTip			BackHand1			BackHand2			BackHand3	
		X0	Y0	Z0	X1	Y1	Z1	X2	Y2	Z2	X3	Y3	Z3	X4	Y4	Z4	X5	Y5	Z5	X6	Y6	Z6	X7	Y7	Z7	X8	Y8	Z8	X9	Y9	Z9	X10	Y10	Z10	X11	Y11	Z11	X12	Y12	Z12	X13	Y13	Z13	X14	Y14	Z14	X15	Y15	Z15	X16	Y16	Z16	X17	Y17	Z17	X18	Y18	Z18	
35	0.291667	-122.549	44.8763	23.6498	-95.1649	64.2697	9.21077	-71.3342	72.5152	-0.186702	-46.2529	73.3095	-5.88057	-75.1448	27.7401	-37.6079	-45.9725	46.0339	-43.5967	-28.0718	59.1202	-31.4185	-52.2158	19.6779	-16.7738	-45.1599	42.855	4.86991	-77.8298	36.6835	25.6755	-49.9775	9.75743	1.99168	-50.2505	31.0186	26.4313	-79.9483	23.9378	34.4282	-46.3834	1.72874	16.8182	-54.6849	20.3573	37.0693	-79.3092	9.688	45.3842	-98.2341	-20.9374	7.70359	-120.062	-22.3612	34.5667	-124.224	4.75132	11.1766	
36	0.3	-127.726	37.8364	22.317	-107.43	61.1964	5.89572	-87.4061	75.8862	-6.07521	-64.2539	87.4561	-16.1817	-76.4031	28.0903	-37.4453	-56.619	47.6738	-47.6662	-39.9604	71.0457	-36.6868	-57.2968	28.4729	-20.5049	-51.7531	55.6141	-2.76395	-77.4128	39.6031	23.3078	-50.207	20.4029	-0.516452	-51.3495	42.6441	20.0411	-83.307	26.533	30.0185	-44.9499	16.6806	14.1753	-54.5023	32.9514	31.7411	-77.024	14.5165	43.4827	-86.6986	-20.3079	14.1168	-106.282	-24.4924	36.7484	-118.154	-1.90115	12.93	
37	0.308333	-127.663	28.2259	20.8363	-115.864	53.8742	0.640211	-100.838	71.1001	-12.4694	-80.7466	84.5508	-24.9634	-79.3896	24.9338	-43.2738	-64.897	48.0063	-54.861	-55.8626	75.069	-46.6756	-61.0774	26.7589	-23.3994	-58.3605	55.7757	-7.47883	-80.1008	37.4913	18.037	-50.6702	23.5538	-4.48795	-59.6843	47.5247	15.9117	-81.7951	23.0395	29.3457	-42.6175	16.3423	9.7256	-52.397	37.2604	28.0979	-74.5933	22.721	39.1189	-84.5685	-19.7024	14.3937	-95.09	-28.3067	41.8762	-116.625	-7.77716	11.3651	
38	0.316667	-128.976	18.3031	21.1648	-124.678	45.8982	-1.43325	-110.736	62.4548	-22.1576	-91.0414	71.2189	-31.6397	-91.1346	10.385	-44.5418	-78.6249	35.82	-63.9153	-65.2266	61.6931	-58.2728	-71.6049	19.4128	-32.0813	-66.5913	48.5803	-16.094	-86.1494	27.5355	12.6956	-58.2375	19.6553	-13.7875	-62.1319	42.7114	6.06432	-82.8495	22.8977	24.0254	-47.9342	15.2497	1.94637	-54.4952	34.7755	19.6233	-75.3762	14.8346	37.3363	-80.8307	-25.5928	15.7796	-96.2353	-29.6733	41.2545	-118.453	-17.2247	14.2038	
39	0.325	-132.397	9.87324	21.4137	-127.711	30.6337	-2.36552	-117.203	46.0078	-31.325	-97.9273	53.6709	-49.1453	-100.611	-6.13155	-50.584	-92.2108	11.0285	-69.591	-79.9559	42.4388	-70.6002	-76.6452	4.30656	-38.0395	-75.4628	33.5401	-25.051	-89.9451	19.8607	4.77293	-67.7918	4.37156	-21.6576	-68.1172	29.9779	-3.98344	-86.7308	11.9794	19.7075	-53.8105	4.69775	-6.92953	-61.4816	24.8521	9.07465	-78.1956	7.23142	28.8593	-89.6248	-36.3998	14.4768	-95.9198	-35.3624	44.8109	-124.572	-24.8303	19.8302	
40	0.333333	-142.623	8.94789	20.1464	-135.42	22.3242	-7.861	-129.065	31.8438	-36.2502	-114.462	36.7787	-57.2006	-119.413	-23.0374	-49.9599	-112.392	-5.51152	-72.6159	-97.5552	19.0023	-78.2082	-94.92	-13.0693	-42.0812	-87.9688	17.1075	-36.5566	-104.536	9.6056	-0.848472	-79.2078	-11.8732	-27.1236	-77.1099	16.6998	-15.9195	-96.6525	4.97583	12.3393	-68.6289	-13.9767	-14.7014	-68.3577	11.5743	-1.46734	-86.2776	2.37807	22.1445	-97.114	-46.2444	14.4428	-104.448	-39.8747	47.1996	-132.035	-32.0557	24.868	
41	0.341667	-148.435	11.0081	24.0049	-140.279	21.5988	-3.4246	-137.302	27.4599	-38.8922	-125.978	24.8651	-59.336	-145.373	-27.268	-42.9012	-138.255	-16.7571	-69.8041	-119.446	4.82042	-80.4433	-115.296	-22.9891	-43.2638	-103.15	6.54901	-40.6911	-109.596	1.44698	-1.87121	-97.1935	-25.2085	-29.7137	-90.9725	4.67105	-22.8375	-105.319	1.20281	7.77535	-81.7976	-26.2592	-19.5867	-80.6033	-0.600357	-7.92424	-93.4847	-8.5438	21.2334	-116.829	-49.5837	17.9951	-118.096	-39.6358	48.6541	-146.392	-27.748	31.2861	
42	0.35	-146.828	17.919	25.3529	-144.167	30.1031	-3.93781	-140.033	27.3913	-35.797	-133.888	26.504	-56.2693	-169.336	-18.0263	-35.5532	-160.355	-9.38164	-66.9456	-138.991	9.04296	-80.983	-136.174	-20.7078	-41.29	-115.263	2.3289	-40.5763	-122.614	3.0819	0.559216	-117.638	-27.7407	-28.7253	-99.2168	-3.38724	-21.5584	-112.147	-1.27506	8.71998	-102.064	-33.4503	-21.2643	-93.0833	-8.31011	-12.1485	-102.884	-10.1871	16.8216	-135.532	-45.5035	23.7087	-127.601	-36.2827	52.5022	-154.972	-18.2399	37.1509	
43	0.358333	-143.273	31.5695	28.9728	-139.391	37.6166	-2.3637	-138.906	42.3274	-30.6718	-136.009	38.4691	-58.6412	-179.512	-2.41159	-31.6728	-179.303	8.42678	-59.6152	-157.575	18.1722	-78.7444	-151.235	-11.5235	-35.7764	-125.11	11.8317	-40.2931	-123.689	9.72653	-2.48502	-132.309	-17.3744	-30.4147	-109.725	-0.668002	-25.8806	-115.003	0.0901822	9.97863	-121.178	-26.6537	-23.7221	-102.039	-9.29232	-15.7064	-106.029	-8.24008	13.1629	-151.029	-33.9306	22.8582	-134.504	-31.158	53.2433	-159.676	-1.76551	41.2371	
44	0.366667	-134.006	38.8792	31.3075	-131.164	52.5526	-2.45864	-134.418	56.8415	-35.3089	-132.668	49.2936	-56.0869	-183.133	22.6303	-26.2359	-183.171	28.7456	-55.9365	-159.484	35.184	-78.4683	-159.571	7.54689	-33.7559	-129.822	18.4976	-43.6567	-122.768	19.6175	-2.85492	-138.8	-6.11379	-31.3767	-113.637	5.45164	-27.1984	-116.745	5.72438	9.13925	-132.943	-20.4964	-23.0613	-106.844	-5.18605	-16.1652	-113.044	-3.44589	13.8408	-156.757	-19.7154	24.0963	-141.838	-16.5181	51.2816	-161.454	13.6119	40.0266	
45	0.375	-124.67	47.9354	29.446	-120.454	58.3465	-3.88529	-119.975	62.6762	-30.0942	-119.715	62.5967	-52.582	-178.113	42.5424	-25.1285	-174.945	50.6128	-55.7621	-153.515	53.1448	-76.3072	-155.626	23.874	-36.0016	-123.058	26.8724	-40.1409	-117.196	25.9757	-3.43381	-143.478	8.80521	-29.9387	-113.829	13.5694	-27.5612	-116.468	13.1542	9.93491	-133.583	-8.39036	-27.1873	-108.671	-1.43803	-18.7349	-110.115	0.901809	10.0705	-158.409	-10.0351	23.6373	-142.963	-8.2316	52.9166	-153.793	24.9515	42.0642	
46	0.383333	-112.464	55.8226	30.8695	-101.856	65.1889	0.799133	-101.869	70.5947	-26.8565	-104.537	67.8887	-52.7109	-163.219	65.9287	-21.1288	-160.042	72.1241	-50.5763	-137.94	68.0984	-73.2899	-147.6	44.4654	-33.8842	-113.142	40.4055	-37.9438	-109.711	32.6101	-1.75686	-140.664	18.6357	-29.4951	-108.967	21.9682	-26.6459	-109.459	17.3331	7.8505	-134.843	5.02643	-27.6817	-111.113	8.10858	-21.6321	-111.122	6.86918	8.51622	-160.471	12.3851	23.2298	-143.585	1.82545	51.7076	-145.389	40.2016	43.4409	
47	0.391667	-91.169	58.7606	36.5276	-82.7799	63.2945	5.45337	-74.0066	76.0618	-23.4357	-73.1117	76.1705	-45.859	-134.713	92.7854	-18.7151	-126.227	99.1022	-43.2029	-106.708	91.733	-67.5014	-131.564	65.8609	-27.6618	-102.03	49.7885	-37.1877	-98.1511	40.7565	1.79447	-129.267	41.6718	-29.0884	-102.891	31.7251	-25.3491	-103.481	25.8457	9.73306	-134.853	27.0293	-23.5623	-108.657	17.8044	-17.58	-111.211	17.4014	12.7402	-152.436	35.6389	26.3696	-144.552	24.6766	51.5207	-130.94	57.7201	47.929	
48	0.4	-73.6749	57.0846	43.4056	-60.7071	61.3618	12.103	-46.5456	71.9002	-15.8849	-50.523	72.9337	-40.4335	-98.5817	109.48	-10.4341	-88.8851	113.588	-38.9222	-73.3583	101.694	-61.5284	-106.757	82.9914	-24.1761	-80.9878	60.8583	-32.7989	-84.2807	48.0453	5.4528	-112.931	64.1131	-22.0364	-94.2448	37.5635	-22.7014	-93.4483	37.962	12.479	-121.612	45.7167	-24.2815	-100.685	29.988	-13.9693	-104.396	27.2999	12.2572	-139.893	60.6981	28.7329	-136.19	44.6196	50.8746	-113.429	68.505	51.1333	
49	0.408333	-53.8403	57.5624	42.6914	-41.9442	56.0855	15.6221	-28.1247	60.2113	-11.6922	-25.2789	61.8665	-37.2752	-65.9925	111.128	-12.6767	-52.4011	110.577	-40.1479	-41.4129	94.8167	-59.6543	-79.5067	87.5645	-25.3102	-66.1475	58.6249	-33.0472	-76.0818	45.7139	4.93047	-94.0209	68.9151	-24.2421	-80.3061	40.4034	-19.7663	-86.1405	37.5937	12.9373	-108.094	60.7402	-18.5268	-91.3992	37.0168	-14.3268	-99.1767	32.2265	17.1344	-118.758	79.6388	27.7962	-118.352	59.8172	53.6636	-90.073	78.5594	50.878	
50	0.416667	-46.3331	46.7334	45.965	-30.3624	41.5988	15.3718	-18.6381	38.23	-10.4353	-12.0898	34.8536	-35.0933	-46.2053	93.2734	-16.2808	-38.1195	88.4676	-49.2085	-27.3487	68.7952	-65.1848	-66.1005	71.9801	-29.3982	-58.167	40.0079	-33.4158	-67.6566	34.5229	3.06506	-82.6044	59.3821	-24.95	-77.6068	27.3272	-16.7254	-80.4455	35.6551	16.8194	-97.2303	48.2613	-21.8608	-90.167	24.7281	-11.6918	-91.8985	30.524	17.8679	-104.14	79.0343	24.8924	-110.559	66.6469	50.9866	-76.1805	77.8313	46.0657	
51	0.425	-46.3694	35.2195	43.9813	-30.2442	20.5684	17.5895	-22.2422	12.2704	-9.18864	-16.9832	3.97535	-35.5236	-45.1181	67.6845	-29.8235	-36.2638	54.2716	-56.3506	-32.7463	27.8408	-71.4643	-65.93	47.5001	-34.0249	-58.7571	16.0433	-33.2315	-70.5236	22.3165	9.38094	-81.5173	37.4776	-27.0664	-77.7981	9.3793	-12.0766	-83.2468	22.8157	16.8843	-103.203	31.3809	-21.8775	-91.5836	10.4739	-3.32306	-92.2981	26.8806	19.5704	-98.7768	70.2559	16.0084	-108.94	62.6777	46.0657	-69.7234	70.6472	38.0591	
52	0.433333	-51.7495	26.5651	39.5829	-39.1025	6.86103	19.456	-25.6002	-8.57247	-11.3379	-26.667	-20.6839	-30.1895	-51.9185	43.1392	-34.4924	-45.4973	24.7517	-58.3167	-44.4892	-4.04436	-68.9045	-73.1944	21.5316	-37.2231	-67.0254	-7.07341	-27.4251	-69.1543	7.21806	11.8048	-92.786	18.1369	-24.4997	-85.0422	-7.13462	-6.9849	-85.7004	12.9517	20.9031	-108.108	13.4445	-17.9435	-97.1704	-2.90992	3.09782	-98.283	18.6564	26.6714	-99.624	57.5947	10.5912	-109.816	58.6529	45.2708	-69.4613	60.275	30.2681	
53	0.441667	-50.0503	18.0323	42.4054	-38.1831	-2.5543	15.0685	-29.6883	-19.5859	-9.65845	-33.091	-31.5437	-26.8114	-55.8326	30.64	-34.7198	-50.8402	8.79528	-58.1795	-49.2885	-16.4842	-65.7956	-73.8172	10.9245	-35.7045	-72.8195	-19.4111	-22.7997	-74.2569	-3.89161	13.1197	-91.4868	6.97687	-24.216	-90.796	-17.18	-6.93556	-84.8957	-1.78947	21.2589	-109.59	6.06074	-16.2044	-98.5405	-12.6816	2.8401	-96.3738	5.42158	26.6338	-104.575	51.811	14.8895	-106.869	52.6841	44.5065	-68.4692	52.2426	29.1917	
54	0.45	-47.6315	16.1469	38.0758	-38.1489	-1.60352	15.9153	-29.273	-16.0013	-11.7241	-32.811	-27.1681	-30.6252	-59.8538	32.295	-34.3265	-55.5571	10.7542	-61.155	-53.9916	-13.2446	-67.7495	-82.3133	16.221	-36.1816	-74.4158	-16.8139	-30.8473	-72.2891	-11.9164	7.9636	-99.374	9.10487	-24.5334	-94.2549	-19.9151	-12.5312	-84.7538	-10.1809	15.4985	-112.273	3.03225	-16.4121	-100.764	-17.3245	-3.00441	-94.3145	-3.15797	22.1057	-105.075	47.948	18.3161	-107.939	44.1107	50.9755	-69.5781	46.7078	33.8496	
